<svg id="Layer_1" data-name="Layer 1" xmlns="http://www.w3.org/2000/svg" viewBox="0 0 802.47 1004.05">
  <defs>
    <style>
      .cls-1 {
        fill: #1f4864;
      }

      .cls-2 {
        fill: #305e84;
      }

      .cls-3 {
        fill: #5689a5;
      }

      .cls-4 {
        fill: #85b7ce;
      }

      .cls-5 {
        fill: #153242;
      }

      .cls-6 {
        fill: #d1e9f2;
      }

      .cls-7 {
        fill: #f2b844;
      }

      .cls-8 {
        fill: #010101;
        stroke: #010101;
        stroke-miterlimit: 10;
        stroke-width: 2.95px;
      }
    </style>
  </defs>
  <g>
    <rect class="cls-1" x="196.57" width="68.58" height="659.91" rx="34.29"/>
    <rect class="cls-2" x="319.4" width="68.58" height="659.91" rx="34.29"/>
    <rect class="cls-1" x="196.57" width="68.58" height="659.91" rx="34.29"/>
    <rect class="cls-2" x="319.4" width="68.58" height="659.91" rx="34.29"/>
    <rect class="cls-3" x="442.81" width="68.58" height="659.91" rx="34.29"/>
    <rect class="cls-4" x="565.64" width="68.58" height="659.91" rx="34.29"/>
    <path class="cls-5" d="M264.32,295.56a80.78,80.78,0,1,1-80.78-80.78,80.78,80.78,0,0,1,80.78,80.78" transform="translate(-102.76 -2.71)"/>
    <path class="cls-6" d="M905.24,301.5a53,53,0,1,1-53-53,53,53,0,0,1,53,53" transform="translate(-102.76 -2.71)"/>
    <path class="cls-7" d="M140.68,446.81c40.06-.23,78.67-1.39,116.47-5.56A774.49,774.49,0,0,0,367.47,421.6a710.12,710.12,0,0,0,200.4-85,713.31,713.31,0,0,0,165-142,776.68,776.68,0,0,0,66.57-90.12c20.54-32,38.73-66.08,56.78-101.86C856,82.88,830.27,163.37,787.59,234c-42.87,70.68-103.47,131.5-174.52,175.46s-152.35,71.37-234.71,78.42c-82.22,6.87-165.72-5.8-237.68-41.08" transform="translate(-102.76 -2.71)"/>
    <path class="cls-8" d="M318.78,760.79a32.46,32.46,0,0,0-12.44-9.91,37.16,37.16,0,0,0-15.59-3.52A41.8,41.8,0,0,0,272.92,751a40.93,40.93,0,0,0-13.68,10,45.87,45.87,0,0,0-8.85,15,53.79,53.79,0,0,0-3.21,18.46,51.08,51.08,0,0,0,2.88,17.42,43.59,43.59,0,0,0,8.48,14.49,40,40,0,0,0,13.59,9.92A44.05,44.05,0,0,0,290.34,840a36.21,36.21,0,0,0,17.6-4,37.67,37.67,0,0,0,12.85-11.44l13.26,10.08a52.46,52.46,0,0,1-4.62,5.15,46.16,46.16,0,0,1-8.73,6.7,61.35,61.35,0,0,1-13.08,5.85A55.68,55.68,0,0,1,290,854.77a57.29,57.29,0,0,1-24.86-5.37,60.89,60.89,0,0,1-34.66-55A68.17,68.17,0,0,1,235,769.53a58.93,58.93,0,0,1,12.49-19.65,55.37,55.37,0,0,1,19.19-12.81,64.17,64.17,0,0,1,24.66-4.49,60.39,60.39,0,0,1,22.56,4.53A42.19,42.19,0,0,1,332,750.83Z" transform="translate(-102.76 -2.71)"/>
    <path class="cls-8" d="M379.73,770.88l-.22,49.89a32,32,0,0,0,1,7.88,22.92,22.92,0,0,0,3.42,7.55,18.83,18.83,0,0,0,6.3,5.66,22.47,22.47,0,0,0,19.31.08,18.73,18.73,0,0,0,6.35-5.6,22.82,22.82,0,0,0,3.48-7.52,32.05,32.05,0,0,0,1.07-7.87l.22-49.89,11,.05-.23,51.61A33.33,33.33,0,0,1,429,835.65a30.78,30.78,0,0,1-6.71,10,29.5,29.5,0,0,1-10,6.51,34.59,34.59,0,0,1-24.83-.11,29.43,29.43,0,0,1-10-6.6,30.94,30.94,0,0,1-6.63-10.09,33.44,33.44,0,0,1-2.35-12.94l.23-51.62Z" transform="translate(-102.76 -2.71)"/>
    <g>
      <path class="cls-8" d="M474,771.3l11,0-.31,71,37.36.17-.05,10.35-48.4-.22Z" transform="translate(-102.76 -2.71)"/>
      <path class="cls-8" d="M545.41,771.61l12.76.06L581.79,838H582l25.13-66.11,12.07.05-32.44,81.25-10.34-.05Z" transform="translate(-102.76 -2.71)"/>
    </g>
    <path class="cls-8" d="M652.1,772.09l52.54.23,0,10.35-41.51-.19-.1,24.26,38.63.17,0,10.34-38.63-.16-.11,26.1,43.57.19,0,10.34-54.61-.24Z" transform="translate(-102.76 -2.71)"/>
    <path class="cls-8" d="M745.23,772.5l28.63.12a33.61,33.61,0,0,1,12.86,2.18,22.05,22.05,0,0,1,8,5.44,18.44,18.44,0,0,1,4,7.38,28.8,28.8,0,0,1,1.11,7.88,21,21,0,0,1-1.41,7.52,21.38,21.38,0,0,1-4,6.54,22.84,22.84,0,0,1-6.35,4.91,22.17,22.17,0,0,1-8.35,2.44l23,37.23-13.8-.06-20.53-36-12.31-.06-.15,35.88-11-.05Zm10.88,35.91,14.48.06A39,39,0,0,0,777,808a17,17,0,0,0,5.64-1.87,10.34,10.34,0,0,0,4-4,15.8,15.8,0,0,0,.06-13.44,10.35,10.35,0,0,0-3.94-4,17.1,17.1,0,0,0-5.63-1.92,40.11,40.11,0,0,0-6.38-.55l-14.49-.06Z" transform="translate(-102.76 -2.71)"/>
    <path class="cls-8" d="M240.3,976.48A26,26,0,0,0,251.18,986a32.94,32.94,0,0,0,13.71,3.1,28,28,0,0,0,8.05-1.2,24.51,24.51,0,0,0,7.49-3.66,20.17,20.17,0,0,0,5.53-6.06,16.11,16.11,0,0,0,2.17-8.36q0-6.74-4.23-10.28a36.74,36.74,0,0,0-10.56-6q-6.31-2.4-13.78-4.65a56.23,56.23,0,0,1-13.77-6.23A33.71,33.71,0,0,1,235.24,932q-4.23-6.66-4.19-18a30.4,30.4,0,0,1,2.27-10.83,29.92,29.92,0,0,1,7-10.48,38.11,38.11,0,0,1,12.27-7.91q7.49-3.18,18-3.13a63.1,63.1,0,0,1,18.22,2.71,31.34,31.34,0,0,1,15.22,10.74L291.2,906.73a21.29,21.29,0,0,0-8.34-7.43,26.75,26.75,0,0,0-12.31-2.85,30,30,0,0,0-10.93,1.68,19.85,19.85,0,0,0-7,4.4,15.74,15.74,0,0,0-3.72,5.82,17.74,17.74,0,0,0-1.09,5.75c0,4.92,1.38,8.71,4.22,11.34a33.07,33.07,0,0,0,10.56,6.46,126.74,126.74,0,0,0,13.78,4.49A59.6,59.6,0,0,1,290.14,942a32.11,32.11,0,0,1,10.55,9.58q4.24,6,4.2,16.53a34.56,34.56,0,0,1-3.27,15.09,33.58,33.58,0,0,1-8.67,11.3,38.49,38.49,0,0,1-12.84,7,50,50,0,0,1-15.78,2.39,57.19,57.19,0,0,1-21.17-4,34.82,34.82,0,0,1-15.88-12.23Z" transform="translate(-102.76 -2.71)"/>
    <path class="cls-8" d="M359.73,930.33l-26.21-.12,0-10.34,63.47.27,0,10.35-26.21-.12-.32,71.06-11,0Z" transform="translate(-102.76 -2.71)"/>
    <path class="cls-8" d="M422,920.25l28.63.13a33.71,33.71,0,0,1,12.87,2.17,22.07,22.07,0,0,1,8,5.45,18.52,18.52,0,0,1,4.05,7.37,29.31,29.31,0,0,1,1.11,7.89,21,21,0,0,1-1.41,7.52,21.38,21.38,0,0,1-4,6.54,23,23,0,0,1-6.35,4.92,22,22,0,0,1-8.35,2.42l22.95,37.25-13.8-.07-20.54-36-12.3,0-.16,35.87-11-.05Zm10.89,35.92,14.48.06a38,38,0,0,0,6.39-.49,17.12,17.12,0,0,0,5.64-1.87,10.34,10.34,0,0,0,4-4,15.92,15.92,0,0,0,.06-13.45,10.42,10.42,0,0,0-4-4,17.21,17.21,0,0,0-5.62-1.93,40.1,40.1,0,0,0-6.38-.54L433,930Z" transform="translate(-102.76 -2.71)"/>
    <g>
      <path class="cls-8" d="M505.33,920.62l11,0-.36,81.4-11-.05Z" transform="translate(-102.76 -2.71)"/>
      <path class="cls-8" d="M550.52,920.82l14.49.06L609.54,988h.23l.3-66.91,11,0-.36,81.4-14-.06-45-67.12h-.23l-.29,66.92-11,0Z" transform="translate(-102.76 -2.71)"/>
      <path class="cls-8" d="M724.42,957.46l-.17,40.12a36.58,36.58,0,0,1-6.8,3.19,72.19,72.19,0,0,1-7.89,2.33,65.62,65.62,0,0,1-8.28,1.39,71.31,71.31,0,0,1-7.88.43,46.82,46.82,0,0,1-18.44-3.53,39.56,39.56,0,0,1-22.09-23A46.08,46.08,0,0,1,650,962a44.8,44.8,0,0,1,3.24-16.89,41.7,41.7,0,0,1,8.8-13.53,39.85,39.85,0,0,1,13.44-9,43.79,43.79,0,0,1,17.14-3.21q11.26.06,18.38,2.91a33.72,33.72,0,0,1,11.93,7.81l-7.86,8.36a28.85,28.85,0,0,0-10.66-6.78,37,37,0,0,0-11.84-1.95,29.66,29.66,0,0,0-22.35,9.45A30.84,30.84,0,0,0,664,949.43,36.15,36.15,0,0,0,661.74,962a33.69,33.69,0,0,0,2.36,12.83,31.67,31.67,0,0,0,6.62,10.32,30.74,30.74,0,0,0,10,6.89,31.42,31.42,0,0,0,12.52,2.52,54.34,54.34,0,0,0,11.1-1,31.28,31.28,0,0,0,8.92-3.12l.1-22.65-18.05-.08.05-10.35Z" transform="translate(-102.76 -2.71)"/>
    </g>
    <path class="cls-8" d="M760.06,986.13a18,18,0,0,0,7.61,6.64,22.7,22.7,0,0,0,9.59,2.17,19.71,19.71,0,0,0,5.64-.83,17.06,17.06,0,0,0,5.24-2.57,14,14,0,0,0,3.87-4.23,11.27,11.27,0,0,0,1.52-5.86c0-3.14-1-5.55-2.95-7.2a25.78,25.78,0,0,0-7.4-4.17c-2.95-1.12-6.16-2.22-9.65-3.26a39.32,39.32,0,0,1-9.63-4.36,23.48,23.48,0,0,1-7.39-7.45c-2-3.11-3-7.32-2.93-12.6a21.67,21.67,0,0,1,6.5-14.92,27,27,0,0,1,8.59-5.53,31.93,31.93,0,0,1,12.6-2.19A44.11,44.11,0,0,1,794,921.66a22,22,0,0,1,10.66,7.53l-9,8.12a14.82,14.82,0,0,0-5.84-5.2,18.43,18.43,0,0,0-8.61-2,20.75,20.75,0,0,0-7.66,1.17,13.62,13.62,0,0,0-4.89,3.08,11,11,0,0,0-2.61,4.07,12.22,12.22,0,0,0-.76,4c0,3.45,1,6.1,3,7.95a23.11,23.11,0,0,0,7.39,4.51,89.6,89.6,0,0,0,9.65,3.16,40.71,40.71,0,0,1,9.64,3.89,22.44,22.44,0,0,1,7.39,6.7q3,4.2,2.94,11.56A24.33,24.33,0,0,1,803,990.8a23.53,23.53,0,0,1-6.07,7.91,26.61,26.61,0,0,1-9,4.9,34.4,34.4,0,0,1-11,1.68,39.91,39.91,0,0,1-14.82-2.83,24.35,24.35,0,0,1-11.11-8.55Z" transform="translate(-102.76 -2.71)"/>
  </g>
</svg>
